# File created by Blade
# Date/Time:  Tue Jan 27 20:08:00 2015
#---------------------------------------------------------
:version 1.10
:name HOM
:units
  mass 1.0
  length 1.000000
  angle deg
:documentation
     Acclaim Skeleton File
:root
   axis xyz
   order TX TY TZ RX RY RZ
   position 0.000000 0.000000 0.000000
   orientation 0 0 0
:bonedata
   begin
      id 1
      name Spine_dum
      direction 0.000000 1.000000 0.000000
      length 6.116652
      axis 0.0 0.0 0.0 xyz
   end
   begin
      id 2
      name LeftUpLeg_dum
      direction 1.000000 0.000000 0.000000
      length 4.711765
      axis 0.0 0.0 0.0 xyz
   end
   begin
      id 3
      name RightUpLeg_dum
      direction -1.000000 0.000000 0.000000
      length 4.711765
      axis 0.0 0.0 0.0 xyz
   end
   begin
      id 4
      name Spine
      direction 0.000000 1.000000 0.000000
      length 0.000000
      axis 0.0 0.0 0.0 xyz
      dof rx ry rz
   end
   begin
      id 5
      name Spine_dum1
      direction 0.000000 1.000000 0.000000
      length 15.225563
      axis 0.0 0.0 0.0 xyz
   end
   begin
      id 6
      name Spine_dum2
      direction 0.000000 1.000000 0.000000
      length 8.977654
      axis 0.0 0.0 0.0 xyz
   end
   begin
      id 7
      name Spine_dum3
      direction 0.000000 1.000000 0.000000
      length 8.977654
      axis 0.0 0.0 0.0 xyz
   end
   begin
      id 8
      name Head
      direction 0.000000 1.000000 0.000000
      length 4.527550
      axis 0.0 0.0 0.0 xyz
      dof rx ry rz
   end
   begin
      id 9
      name LeftShoulder
      direction 1.000000 0.000000 0.000000
      length 7.110130
      axis 0.0 0.0 -90.0 xyz
      dof rx ry rz
   end
   begin
      id 10
      name LeftArm
      direction 1.000000 0.000000 0.000000
      length 10.398341
      axis 0.0 0.0 -90.0 xyz
      dof rx ry rz
   end
   begin
      id 11
      name LeftForeArm
      direction 1.000000 0.000000 0.000000
      length 8.888997
      axis 0.0 0.0 -90.0 xyz
      dof ry rz rx
   end
   begin
      id 12
      name LeftHand
      direction 0.000000 0.000000 0.000000
      length 0.000000
      axis 0.0 0.0 -90.0 xyz
      dof rx ry rz
   end
   begin
      id 13
      name LeftHand_dum1
      direction 0.000000 0.000000 0.000000
      length 0.000000
      axis 0.0 0.0 -90.0 xyz
   end
   begin
      id 14
      name LeftHand_dum2
      direction 1.000000 0.000000 0.000000
      length 3.937000
      axis 0.0 0.0 -90.0 xyz
   end
   begin
      id 15
      name LeftHandThumb1
      direction 0.000000 0.000000 1.000000
      length 3.937000
      axis 0.0 0.0 -90.0 xyz
      dof rx rz ry
   end
   begin
      id 16
      name RightShoulder
      direction -1.000000 0.000000 0.000000
      length 7.110130
      axis 0.0 0.0 90.0 xyz
      dof rx ry rz
   end
   begin
      id 17
      name RightArm
      direction -1.000000 0.000000 0.000000
      length 10.398341
      axis 0.0 0.0 90.0 xyz
      dof rx ry rz
   end
   begin
      id 18
      name RightForeArm
      direction -1.000000 0.000000 0.000000
      length 8.888997
      axis 0.0 0.0 90.0 xyz
      dof ry rz rx
   end
   begin
      id 19
      name RightHand
      direction 0.000000 0.000000 0.000000
      length 0.000000
      axis 0.0 0.0 90.0 xyz
      dof rx ry rz
   end
   begin
      id 20
      name RightHand_dum1
      direction 0.000000 0.000000 0.000000
      length 0.000000
      axis 0.0 0.0 90.0 xyz
   end
   begin
      id 21
      name RightHand_dum2
      direction -1.000000 0.000000 0.000000
      length 3.937000
      axis 0.0 0.0 90.0 xyz
   end
   begin
      id 22
      name RightHandThumb1
      direction 0.000000 0.000000 1.000000
      length 3.937000
      axis 0.0 0.0 90.0 xyz
      dof rx rz ry
   end
   begin
      id 23
      name LeftUpLeg
      direction 0.000000 -1.000000 0.000000
      length 15.510451
      axis 0.0 0.0 0.0 xyz
      dof rx ry rz
   end
   begin
      id 24
      name LeftLeg
      direction 0.000000 -1.000000 0.000000
      length 14.858061
      axis 0.0 0.0 0.0 xyz
      dof rx ry rz
   end
   begin
      id 25
      name LeftFoot
      direction 0.000000 -0.258819 0.965926
      length 5.128852
      axis 15.0 0.0 0.0 xyz
      dof rx ry rz
   end
   begin
      id 26
      name LeftToeBase
      direction 0.000000 0.000000 1.000000
      length 2.952750
      axis 0.0 0.0 0.0 xyz
      dof rx ry rz
   end
   begin
      id 27
      name RightUpLeg
      direction 0.000000 -1.000000 0.000000
      length 15.510451
      axis 0.0 0.0 0.0 xyz
      dof rx ry rz
   end
   begin
      id 28
      name RightLeg
      direction 0.000000 -1.000000 0.000000
      length 14.858061
      axis 0.0 0.0 0.0 xyz
      dof rx ry rz
   end
   begin
      id 29
      name RightFoot
      direction 0.000000 -0.258819 0.965926
      length 5.128852
      axis 15.0 0.0 0.0 xyz
      dof rx ry rz
   end
   begin
      id 30
      name RightToeBase
      direction 0.000000 0.000000 1.000000
      length 2.952750
      axis 0.0 0.0 0.0 xyz
      dof rx ry rz
   end
:hierarchy
   begin
      root Spine_dum LeftUpLeg_dum RightUpLeg_dum
      Spine_dum Spine
      LeftUpLeg_dum LeftUpLeg
      RightUpLeg_dum RightUpLeg
      Spine Spine_dum1 Spine_dum2 Spine_dum3
      Spine_dum1 Head
      Spine_dum2 LeftShoulder
      Spine_dum3 RightShoulder
      LeftShoulder LeftArm
      LeftArm LeftForeArm
      LeftForeArm LeftHand
      LeftHand LeftHand_dum1 LeftHand_dum2
      LeftHand_dum1 LeftHandThumb1
      RightShoulder RightArm
      RightArm RightForeArm
      RightForeArm RightHand
      RightHand RightHand_dum1 RightHand_dum2
      RightHand_dum1 RightHandThumb1
      LeftUpLeg LeftLeg
      LeftLeg LeftFoot
      LeftFoot LeftToeBase
      RightUpLeg RightLeg
      RightLeg RightFoot
      RightFoot RightToeBase
   end

# File created by Blade
# Date/Time:  Tue Jan 27 20:07:51 2015
# Frame Rate: 120.000 fps
#------------------------------------------------------
:FULLY-SPECIFIED
:DEGREES
1282
root 6.081865 32.335396 -4.534828 -5.071882 2.141467 -3.111680
Spine 3.826141 7.965364 -1.241093
Head 22.077675 -8.774516 3.299368
LeftShoulder -14.156312 -2.133377 30.535784
LeftArm -3.170693 -10.569535 -76.671373
LeftForeArm -13.963406 0.000000 111.110019
LeftHand 12.286125 -0.000000 7.381041
LeftHandThumb1 -26.253704 0.000000 33.147579
RightShoulder -18.942937 -18.098011 -20.674198
RightArm 11.276879 -23.085086 91.685294
RightForeArm -15.455611 -0.000000 22.141812
RightHand 17.103551 -0.000000 2.243419
RightHandThumb1 -24.326973 -0.000000 -32.862282
LeftUpLeg 11.176647 -2.428967 -5.622809
LeftLeg -2.291925 -0.000000 0.000000
LeftFoot -15.116548 13.561895 -16.374276
LeftToeBase 21.526541 -0.000000 -0.000000
RightUpLeg -39.731486 5.938178 10.353248
RightLeg 103.986937 -0.000000 -0.000000
RightFoot 30.156633 -27.122597 7.075695
RightToeBase 19.126312 -0.000000 -0.000000
1283
root 6.079606 32.335632 -4.543935 -5.071058 2.158154 -3.109658
Spine 3.846438 7.949001 -1.247799
Head 22.058591 -8.755290 3.265825
LeftShoulder -14.151013 -2.143101 30.530881
LeftArm -3.154637 -10.560751 -76.667286
LeftForeArm -13.949202 -0.000000 111.119222
LeftHand 12.265442 0.000000 7.586253
LeftHandThumb1 -26.253704 0.000000 33.147579
RightShoulder -18.924069 -18.083087 -20.675981
RightArm 11.313402 -23.061985 91.671563
RightForeArm -15.517085 0.000000 22.180574
RightHand 17.164864 -0.000000 1.859533
RightHandThumb1 -24.326973 -0.000000 -32.862282
LeftUpLeg 11.151375 -2.489822 -5.625609
LeftLeg -2.276864 -0.000000 0.000000
LeftFoot -15.129241 13.578499 -16.407814
LeftToeBase 21.526843 -0.000000 -0.000000
RightUpLeg -39.692555 5.886983 10.371322
RightLeg 103.958189 -0.000000 -0.000000
RightFoot 30.039632 -27.225224 7.202981
RightToeBase 19.300542 -0.000000 -0.000000
1284
root 6.078551 32.336033 -4.554204 -5.061982 2.173320 -3.101342
Spine 3.862881 7.945815 -1.258339
Head 22.030960 -8.760964 3.226435
LeftShoulder -14.137903 -2.180215 30.526843
LeftArm -3.164104 -10.560202 -76.663103
LeftForeArm -13.948808 -0.000000 111.136785
LeftHand 12.252381 -0.000000 7.557477
LeftHandThumb1 -26.253704 0.000000 33.147579
RightShoulder -18.929290 -18.101779 -20.681245
RightArm 11.372613 -23.033512 91.664229
RightForeArm -15.558423 -0.000000 22.222839
RightHand 17.152265 -0.000000 2.728150
RightHandThumb1 -24.326973 -0.000000 -32.862282
LeftUpLeg 11.113213 -2.519351 -5.632713
LeftLeg -2.256178 -0.000000 0.000000
LeftFoot -15.138743 13.571222 -16.434754
LeftToeBase 21.609505 -0.000000 -0.000000
RightUpLeg -39.674929 5.833187 10.381848
RightLeg 103.865970 -0.000000 -0.000000
RightFoot 29.949525 -27.285407 7.273497
RightToeBase 19.694998 -0.000000 -0.000000
1285
root 6.077221 32.335923 -4.563835 -5.054560 2.173268 -3.099872
Spine 3.878826 7.950062 -1.261268
Head 22.010462 -8.752591 3.197611
LeftShoulder -14.131489 -2.196107 30.517445
LeftArm -3.151785 -10.560805 -76.662997
LeftForeArm -13.972819 -0.000000 111.149514
LeftHand 12.282704 -0.000000 7.513243
LeftHandThumb1 -26.253704 0.000000 33.147579
RightShoulder -18.911675 -18.089974 -20.691831
RightArm 11.395803 -23.002830 91.657235
RightForeArm -15.541223 -0.000000 22.285914
RightHand 17.133914 0.000000 2.919983
RightHandThumb1 -24.326973 -0.000000 -32.862282
LeftUpLeg 11.096828 -2.496576 -5.624857
LeftLeg -2.276965 -0.000000 0.000000
LeftFoot -15.095286 13.553016 -16.414729
LeftToeBase 21.582162 -0.000000 -0.000000
RightUpLeg -39.664574 5.807614 10.393265
RightLeg 103.702941 -0.000000 -0.000000
RightFoot 29.997651 -27.276356 7.061090
RightToeBase 19.635973 -0.000000 -0.000000
1286
root 6.075093 32.336649 -4.573685 -5.048124 2.176964 -3.101133
Spine 3.896004 7.944829 -1.262195
Head 21.993752 -8.733629 3.170665
LeftShoulder -14.130958 -2.200445 30.505555
LeftArm -3.129682 -10.567485 -76.670763
LeftForeArm -13.972145 0.000000 111.162188
LeftHand 12.267212 0.000000 7.489092
LeftHandThumb1 -26.253704 0.000000 33.147579
RightShoulder -18.905938 -18.060109 -20.700568
RightArm 11.430298 -23.028788 91.636495
RightForeArm -15.398615 0.000000 22.310684
RightHand 17.092185 -0.000000 2.617612
RightHandThumb1 -24.326973 -0.000000 -32.862282
LeftUpLeg 11.066208 -2.479180 -5.614632
LeftLeg -2.264421 -0.000000 0.000000
LeftFoot -15.079576 13.520683 -16.404219
LeftToeBase 21.546534 -0.000000 -0.000000
RightUpLeg -39.664571 5.770354 10.414705
RightLeg 103.494108 -0.000000 -0.000000
RightFoot 30.056205 -27.377965 7.265618
RightToeBase 18.671279 -0.000000 -0.000000
1287
root 6.074045 32.336926 -4.584375 -5.026316 2.172623 -3.088734
Spine 3.895705 7.948730 -1.281437
Head 21.979562 -8.718935 3.157511
LeftShoulder -14.125409 -2.217246 30.503601
LeftArm -3.123385 -10.567100 -76.675227
LeftForeArm -13.968514 -0.000000 111.170961
LeftHand 12.287225 -0.000000 7.494520
LeftHandThumb1 -26.253704 0.000000 33.147579
RightShoulder -18.886234 -18.099060 -20.692425
RightArm 11.506780 -23.031345 91.608208
RightForeArm -15.395889 -0.000000 22.358607
RightHand 17.136665 -0.000000 2.599470
RightHandThumb1 -24.326973 -0.000000 -32.862282
LeftUpLeg 11.021194 -2.440909 -5.613932
LeftLeg -2.257721 -0.000000 0.000000
LeftFoot -15.071625 13.465487 -16.437813
LeftToeBase 21.585757 -0.000000 -0.000000
RightUpLeg -39.700541 5.790859 10.403232
RightLeg 103.212066 -0.000000 -0.000000
RightFoot 30.065749 -27.428930 7.352901
RightToeBase 19.758533 -0.000000 -0.000000
1288
root 6.072441 32.337701 -4.596712 -4.997482 2.161426 -3.088230
Spine 3.889740 7.951728 -1.284088
Head 21.964305 -8.704025 3.137577
LeftShoulder -14.130773 -2.213190 30.490085
LeftArm -3.087466 -10.572869 -76.692007
LeftForeArm -13.953756 0.000000 111.167528
LeftHand 12.286970 -0.000000 7.471297
LeftHandThumb1 -26.253704 0.000000 33.147579
RightShoulder -18.866833 -18.082743 -20.711659
RightArm 11.533368 -23.048412 91.605958
RightForeArm -15.406876 -0.000000 22.380209
RightHand 17.186912 0.000000 2.561360
RightHandThumb1 -24.326973 -0.000000 -32.862282
LeftUpLeg 10.974347 -2.425551 -5.608116
LeftLeg -2.265512 -0.000000 0.000000
LeftFoot -15.030644 13.467545 -16.398661
LeftToeBase 21.591069 -0.000000 -0.000000
RightUpLeg -39.753289 5.807940 10.405260
RightLeg 102.848368 -0.000000 -0.000000
RightFoot 30.167877 -27.397265 7.052619
RightToeBase 19.215727 -0.000000 -0.000000
1289
root 6.071017 32.338193 -4.608215 -4.979098 2.138045 -3.085697
Spine 3.895368 7.962142 -1.282349
Head 21.948880 -8.681387 3.107586
LeftShoulder -14.132186 -2.219950 30.476811
LeftArm -3.071753 -10.596483 -76.704677
LeftForeArm -13.943012 -0.000000 111.167346
LeftHand 12.277299 -0.000000 7.411157
LeftHandThumb1 -26.253704 0.000000 33.147579
RightShoulder -18.844476 -18.068325 -20.745532
RightArm 11.552885 -23.060993 91.617961
RightForeArm -15.429953 -0.000000 22.405070
RightHand 17.205402 -0.000000 2.565745
RightHandThumb1 -24.326973 -0.000000 -32.862282
LeftUpLeg 10.948038 -2.408349 -5.604581
LeftLeg -2.290407 -0.000000 0.000000
LeftFoot -15.010042 13.460654 -16.409071
LeftToeBase 21.684912 -0.000000 -0.000000
RightUpLeg -39.801321 5.855181 10.411366
RightLeg 102.426896 -0.000000 -0.000000
RightFoot 30.143660 -27.498719 6.938009
RightToeBase 19.352585 -0.000000 -0.000000
1290
root 6.069212 32.339037 -4.621194 -4.950989 2.121281 -3.080656
Spine 3.897339 7.975874 -1.288676
Head 21.920638 -8.673190 3.094522
LeftShoulder -14.132456 -2.250340 30.474104
LeftArm -3.069672 -10.603817 -76.716643
LeftForeArm -13.951796 -0.000000 111.159363
LeftHand 12.278985 -0.000000 7.383797
LeftHandThumb1 -26.253704 0.000000 33.147579
RightShoulder -18.835655 -18.050103 -20.764449
RightArm 11.570872 -23.089400 91.624810
RightForeArm -15.435637 -0.000000 22.423252
RightHand 17.240969 0.000000 2.357765
RightHandThumb1 -24.326973 -0.000000 -32.862282
LeftUpLeg 10.900369 -2.427451 -5.608482
LeftLeg -2.296211 -0.000000 0.000000
LeftFoot -14.995237 13.490805 -16.416157
LeftToeBase 21.690131 -0.000000 -0.000000
RightUpLeg -39.868415 5.905969 10.400485
RightLeg 101.942485 -0.000000 -0.000000
RightFoot 30.032662 -27.770858 7.069377
RightToeBase 18.934190 -0.000000 -0.000000
1291
root 6.067690 32.339794 -4.634296 -4.933502 2.102185 -3.068289
Spine 3.912912 8.001298 -1.303927
Head 21.882351 -8.675789 3.094437
LeftShoulder -14.131548 -2.272492 30.479232
LeftArm -3.043955 -10.609817 -76.755075
LeftForeArm -13.946384 -0.000000 111.141630
LeftHand 12.317751 -0.000000 7.407013
LeftHandThumb1 -26.253704 0.000000 33.147579
RightShoulder -18.815189 -18.044226 -20.779340
RightArm 11.570879 -23.063157 91.647641
RightForeArm -15.477487 0.000000 22.480648
RightHand 17.221610 -0.000000 2.481998
RightHandThumb1 -24.326973 -0.000000 -32.862282
LeftUpLeg 10.857258 -2.442763 -5.619753
LeftLeg -2.290271 -0.000000 0.000000
LeftFoot -14.972001 13.518841 -16.405414
LeftToeBase 21.619246 -0.000000 -0.000000
RightUpLeg -39.944851 5.998022 10.379766
RightLeg 101.419371 -0.000000 -0.000000
RightFoot 29.485999 -28.005940 7.629100
RightToeBase 20.305821 -0.000000 -0.000000
1292
root 6.065096 32.340509 -4.648674 -4.915363 2.082624 -3.057463
Spine 3.936087 8.030546 -1.317049
Head 21.834974 -8.664433 3.091699
LeftShoulder -14.126895 -2.291342 30.482631
LeftArm -3.007872 -10.630210 -76.789913
LeftForeArm -13.933265 0.000000 111.115008
LeftHand 12.336149 -0.000000 7.419728
LeftHandThumb1 -26.253704 0.000000 33.147579
RightShoulder -18.804034 -18.020611 -20.796610
RightArm 11.558928 -23.094606 91.662685
RightForeArm -15.474932 -0.000000 22.528295
RightHand 17.241138 -0.000000 2.481658
RightHandThumb1 -24.326973 -0.000000 -32.862282
LeftUpLeg 10.810697 -2.455314 -5.625081
LeftLeg -2.282702 -0.000000 0.000000
LeftFoot -14.962528 13.517275 -16.424900
LeftToeBase 21.708979 -0.000000 -0.000000
RightUpLeg -40.026122 6.101839 10.361174
RightLeg 100.835235 -0.000000 -0.000000
RightFoot 29.287781 -28.111627 7.582433
RightToeBase 20.101914 -0.000000 -0.000000
